<?xml version="1.0" encoding="UTF-8"?>
<svg id="Layer_1" data-name="Layer 1" xmlns="http://www.w3.org/2000/svg" viewBox="0 0 1920 1080">
  <defs>
    <style>
      .cls-1 {
        fill: #efeae3;
      }

      .cls-2 {
        fill: #fe330a;
      }
    </style>
  </defs>
  <rect class="cls-1" width="1920" height="1080"/>
  <g>
    <path class="cls-2" d="m303.5,431.16h51.73c20.12,0,35.05-3.92,44.79-11.76,9.73-7.84,14.6-19.81,14.6-35.93s-4.87-28.2-14.6-36.04c-9.73-7.84-24.66-11.76-44.79-11.76h-74.59v161.76h22.86v-66.28Zm0-75.25h44.08c16.62,0,28.14,2.12,34.56,6.34,6.42,4.23,9.62,11.52,9.62,21.87s-3.32,17.43-9.95,21.66c-6.64,4.23-18.56,6.34-35.76,6.34h-42.55v-56.22Z"/>
    <path class="cls-2" d="m504.8,396.55c2.52.4,5.23,1.04,8.15,1.91v-22.86c-1.39-.73-2.81-1.26-4.27-1.59-1.46-.33-3.28-.49-5.47-.49-8.9,0-17.1,2.08-24.61,6.23-7.51,4.16-14,10.17-19.47,18.05v-20.23h-21.55v119.87h21.77v-58.73c0-12.25,3.66-22.44,10.99-30.57,7.33-8.13,16.35-12.19,27.07-12.19,2.41,0,4.87.2,7.38.6Z"/>
    <rect class="cls-2" x="528.59" y="377.57" width="21.66" height="119.87"/>
    <rect class="cls-2" x="528.59" y="335.68" width="21.66" height="26.25"/>
    <path class="cls-2" d="m632.05,478.63l-40.8-101.06h-25.92l54.36,119.87c-2.48,8.68-5.65,14.62-9.52,17.83-3.87,3.21-9.66,4.81-17.39,4.81-1.46,0-3.21-.11-5.25-.33-2.04-.22-4.52-.55-7.44-.98v20.34c2.92.29,5.65.51,8.2.66,2.55.15,4.81.22,6.78.22,5.83,0,10.97-.57,15.42-1.7,4.45-1.13,8.2-2.79,11.27-4.98,3.13-2.33,6.43-6.29,9.9-11.87,3.46-5.58,7.6-13.87,12.41-24.88l53.16-119h-25.37l-39.81,101.06Z"/>
    <path class="cls-2" d="m834.72,479.51c-4.01,0-6.8-1.27-8.37-3.83-1.57-2.55-2.35-7.18-2.35-13.89v-48.34c0-14.58-4.14-24.88-12.41-30.9-8.28-6.02-22.44-9.02-42.49-9.02-18.45,0-32.5,3.55-42.16,10.66-9.66,7.11-14.86,17.7-15.59,31.77l22.53-.11c.58-8.24,3.74-14.22,9.46-17.94,5.72-3.72,14.82-5.58,27.29-5.58,11.01,0,18.96,1.44,23.84,4.32,4.88,2.88,7.33,7.49,7.33,13.84,0,8.46-10.25,13.67-30.73,15.64-4.01.44-7.07.77-9.19.98-12.1,1.31-20.84,2.55-26.19,3.72-5.36,1.17-9.46,2.62-12.3,4.38-5.76,3.5-10.08,7.67-12.96,12.52-2.88,4.85-4.32,10.37-4.32,16.57,0,11.37,4.05,20.23,12.14,26.58,8.09,6.34,19.5,9.52,34.23,9.52,11.01,0,20.82-1.84,29.42-5.52,8.6-3.68,15.6-9.02,21-16.02,1.09,6.49,3.34,11.21,6.73,14.16,3.39,2.95,8.26,4.43,14.6,4.43,2.62,0,5.36-.09,8.2-.27,2.84-.18,5.69-.45,8.53-.82v-17.5c-1.17.22-2.28.38-3.34.49-1.06.11-2.02.16-2.9.16Zm-32.48-25.7c0,7.88-4.38,14.55-13.12,20.02-8.75,5.47-19.76,8.2-33.03,8.2-8.24,0-14.67-1.64-19.3-4.92-4.63-3.28-6.95-7.84-6.95-13.67s2.11-9.88,6.34-12.58c4.23-2.7,14.15-4.92,29.75-6.67,9.62-1.09,17.34-2.31,23.13-3.66,5.8-1.35,10.19-2.9,13.18-4.65v17.94Z"/>
    <path class="cls-2" d="m968.15,388.18c-3.94-4.52-8.95-7.93-15.04-10.23-6.09-2.3-13.07-3.45-20.94-3.45-10.14,0-19.29,1.95-27.45,5.85-8.17,3.9-15.53,9.86-22.09,17.88v-20.67h-21.55v119.87h21.77v-60.92c0-13.05,4.12-23.59,12.36-31.61,8.24-8.02,18.92-12.03,32.05-12.03,10.28,0,17.63,2.64,22.04,7.93,4.41,5.29,6.62,14.27,6.62,26.96v69.67h21.66v-68.8c0-12.1-.71-20.89-2.13-26.36-1.42-5.47-3.85-10.17-7.27-14.11Z"/>
    <path class="cls-2" d="m1054.45,424.82c-11.52-1.97-18.88-4.1-22.09-6.4s-4.81-5.74-4.81-10.34c0-5.25,2.64-9.26,7.93-12.03,5.29-2.77,12.96-4.16,23.02-4.16,7.22,0,13.29.77,18.23,2.31,3.15-5.82,6.49-11.52,9.99-17.11-7.57-2.38-16.61-3.57-27.12-3.57-17.65,0-31.04,3.26-40.2,9.79-9.15,6.53-13.73,16.06-13.73,28.6,0,9.55,2.9,16.73,8.69,21.55,5.8,4.81,16.94,8.6,33.41,11.38l6.86,1.2c2.17-6.77,4.57-13.45,7.19-20.01l-7.38-1.21Z"/>
    <path class="cls-2" d="m1034.43,476.23c-6.05-4.16-9.59-10.06-10.61-17.72h-23.84c1.38,14.66,6.91,25.52,16.57,32.59,6.57,4.81,15.22,7.98,25.93,9.52.84-6.6,1.92-13.13,3.18-19.6-4.31-1.04-8.06-2.63-11.23-4.8Z"/>
    <path d="m417.03,619.57c-6.93-5.47-14.87-9.35-23.84-11.65-8.97-2.3-22.75-3.45-41.34-3.45h-71.2v161.76h71.2c18.59,0,32.37-1.15,41.34-3.45,8.97-2.3,16.92-6.14,23.84-11.54,8.82-6.93,15.51-15.95,20.07-27.07,4.56-11.12,6.84-24.04,6.84-38.77s-2.28-27.67-6.84-38.83c-4.56-11.16-11.25-20.16-20.07-27.01Zm-1.69,94.66c-3.25,8.79-7.68,15.59-13.29,20.4-4.52,3.94-10.1,6.8-16.73,8.59-6.64,1.79-15.31,2.68-26.03,2.68h-55.78v-121.19h55.78c10.72,0,19.4.88,26.03,2.62,6.63,1.75,12.21,4.59,16.73,8.53,5.61,4.81,10.04,11.58,13.29,20.29,3.24,8.71,4.87,18.39,4.87,29.04s-1.62,20.25-4.87,29.04Z"/>
    <polygon points="495.01 694.16 594.21 694.16 594.21 672.83 495.01 672.83 495.01 625.15 600.77 625.15 600.77 604.48 472.15 604.48 472.15 766.24 602.3 766.24 602.3 744.47 495.01 744.47 495.01 694.16"/>
    <path class="cls-2" d="m1347.14,232.84c-109.8,0-206.12,57.62-260.43,144.26,5.19,1.63,9.7,3.8,13.51,6.54,9.37,6.75,14.05,16.46,14.05,29.15v.88h-21.11c-.73-7.36-3.94-12.83-9.62-16.41-1.96-1.23-4.23-2.24-6.82-3.05-5.55,10.27-10.52,20.89-14.89,31.82l18.65,3.06c14.36,2.41,24.33,6.14,29.91,11.21,5.58,5.07,8.37,12.63,8.37,22.69,0,12.4-5.16,21.95-15.48,28.66s-25.1,10.06-44.35,10.06c-5.94,0-11.42-.37-16.45-1.09-1.65,12.89-2.5,26.04-2.5,39.38,0,169.64,137.52,307.16,307.16,307.16s307.16-137.52,307.16-307.16-137.52-307.16-307.16-307.16Zm-89.37,264.6h-21.66v-69.67c0-12.69-2.21-21.67-6.62-26.96-4.41-5.29-11.76-7.93-22.04-7.93-13.12,0-23.81,4.01-32.05,12.03-8.24,8.02-12.36,18.56-12.36,31.61v60.92h-21.76v-161.76h21.55v62.56c6.56-8.02,13.93-13.98,22.09-17.88,8.17-3.9,17.32-5.85,27.45-5.85,7.88,0,14.86,1.15,20.94,3.45,6.09,2.3,11.1,5.71,15.04,10.23,3.43,3.94,5.85,8.64,7.27,14.11,1.42,5.47,2.13,14.26,2.13,26.36v68.8Zm147.87,0h-21.44v-20.34c-6.64,8.02-14,13.98-22.09,17.88s-17.25,5.85-27.45,5.85c-7.8,0-14.77-1.19-20.89-3.55s-11.19-5.81-15.2-10.34c-3.35-3.94-5.76-8.66-7.22-14.16-1.46-5.5-2.19-14.31-2.19-26.41v-68.79h21.76v69.67c0,12.69,2.21,21.69,6.62,27.02,4.41,5.32,11.76,7.98,22.04,7.98,13.12,0,23.81-4.03,32.05-12.09,8.24-8.06,12.36-18.61,12.36-31.66v-60.92h21.66v119.87Z"/>
    <path class="cls-2" d="m1086.5,477.65c6.56-3.21,9.84-7.66,9.84-13.34,0-4.16-1.53-7.31-4.59-9.46-3.06-2.15-8.79-3.92-17.17-5.3l-19.94-3.5c-3.65,11.39-6.66,23.06-8.98,34.98,3.95.95,8.36,1.44,13.27,1.44,11.81,0,21-1.6,27.56-4.81Z"/>
  </g>
</svg>